<svg width="346" height="783" viewBox="0 0 346 783" fill="none" xmlns="http://www.w3.org/2000/svg">
<g filter="url(#filter0_d_99_37527)">
<path d="M113.245 77.2947V77.5833C113.245 77.6834 113.182 77.7607 113.076 77.7901L112.448 77.9656C112.374 77.9872 112.322 78.0655 112.322 78.1559V78.7908C112.322 79.0454 112.115 79.2525 111.86 79.2525C111.605 79.2525 111.398 79.0454 111.398 78.7908C111.398 78.5361 111.605 78.329 111.86 78.329C111.999 78.329 112.122 78.3916 112.206 78.4886V77.5013C112.206 77.3735 112.293 77.2591 112.417 77.2231L112.952 77.0728C113.038 77.0483 113.113 77.0566 113.166 77.0968C113.219 77.1368 113.245 77.2035 113.245 77.2947Z" fill="#872EC4"/>
<path d="M108.42 74.3145V74.4876C108.42 74.5477 108.382 74.5941 108.318 74.6117L107.942 74.717C107.897 74.73 107.866 74.7769 107.866 74.8312V75.2121C107.866 75.3649 107.742 75.4892 107.589 75.4892C107.436 75.4892 107.312 75.3649 107.312 75.2121C107.312 75.0593 107.436 74.9351 107.589 74.9351C107.672 74.9351 107.746 74.9726 107.796 75.0308V74.4385C107.796 74.3618 107.848 74.2931 107.923 74.2715L108.244 74.1813C108.296 74.1666 108.34 74.1716 108.372 74.1957C108.404 74.2198 108.42 74.2597 108.42 74.3145Z" fill="#872EC4"/>
</g>
<g filter="url(#filter1_d_99_37527)">
<path d="M272.48 289.939C272.48 290.111 272.34 290.251 272.168 290.251C271.997 290.251 271.857 290.111 271.857 289.939C271.857 289.767 271.997 289.627 272.168 289.627C272.34 289.627 272.48 289.767 272.48 289.939ZM272.22 289.454V289.315C272.22 289.287 272.197 289.264 272.168 289.264C272.14 289.264 272.116 289.287 272.116 289.315V289.454C272.116 289.483 272.14 289.506 272.168 289.506C272.197 289.506 272.22 289.483 272.22 289.454ZM272.22 290.562V290.424C272.22 290.395 272.197 290.372 272.168 290.372C272.14 290.372 272.116 290.395 272.116 290.424V290.562C272.116 290.591 272.14 290.614 272.168 290.614C272.197 290.614 272.22 290.591 272.22 290.562ZM271.735 289.939C271.735 289.91 271.712 289.887 271.684 289.887H271.545C271.516 289.887 271.493 289.91 271.493 289.939C271.493 289.968 271.516 289.991 271.545 289.991H271.684C271.712 289.991 271.735 289.968 271.735 289.939ZM272.844 289.939C272.844 289.91 272.82 289.887 272.792 289.887H272.653C272.625 289.887 272.601 289.91 272.601 289.939C272.601 289.968 272.625 289.991 272.653 289.991H272.792C272.82 289.991 272.844 289.968 272.844 289.939ZM271.862 289.633C271.883 289.613 271.883 289.58 271.862 289.559L271.764 289.461C271.744 289.441 271.711 289.441 271.691 289.461C271.671 289.482 271.671 289.515 271.691 289.535L271.789 289.633C271.799 289.643 271.812 289.648 271.826 289.648C271.839 289.648 271.852 289.643 271.862 289.633ZM272.646 290.416C272.666 290.396 272.666 290.363 272.646 290.343L272.548 290.245C272.528 290.225 272.495 290.225 272.474 290.245C272.454 290.265 272.454 290.298 272.474 290.318L272.572 290.416C272.583 290.427 272.596 290.432 272.609 290.432C272.622 290.432 272.636 290.427 272.646 290.416ZM271.764 290.416L271.862 290.318C271.883 290.298 271.883 290.265 271.862 290.245C271.842 290.225 271.809 290.225 271.789 290.245L271.691 290.343C271.671 290.363 271.671 290.396 271.691 290.416C271.701 290.427 271.714 290.432 271.728 290.432C271.741 290.432 271.754 290.427 271.764 290.416ZM272.548 289.633L272.646 289.535C272.666 289.515 272.666 289.482 272.646 289.461C272.626 289.441 272.593 289.441 272.572 289.461L272.474 289.559C272.454 289.58 272.454 289.613 272.474 289.633C272.485 289.643 272.498 289.648 272.511 289.648C272.524 289.648 272.538 289.643 272.548 289.633Z" fill="#872EC4"/>
</g>
<g filter="url(#filter2_d_99_37527)">
<path d="M15.1503 129.295V129.583C15.1503 129.683 15.087 129.761 14.9811 129.79L14.3532 129.966C14.2789 129.987 14.2268 130.066 14.2268 130.156V130.791C14.2268 131.046 14.0197 131.253 13.765 131.253C13.5103 131.253 13.3032 131.046 13.3032 130.791C13.3032 130.536 13.5103 130.329 13.765 130.329C13.9035 130.329 14.0266 130.392 14.1113 130.489V129.501C14.1113 129.374 14.1978 129.259 14.3214 129.223L14.8565 129.073C14.9433 129.048 15.0177 129.057 15.0706 129.097C15.1236 129.137 15.1503 129.204 15.1503 129.295Z" fill="#514CD9"/>
<path d="M10.3248 126.315V126.488C10.3248 126.548 10.2868 126.594 10.2233 126.612L9.84651 126.717C9.80198 126.73 9.77067 126.777 9.77067 126.831V127.212C9.77067 127.365 9.64641 127.489 9.49361 127.489C9.34081 127.489 9.21655 127.365 9.21655 127.212C9.21655 127.059 9.34081 126.935 9.49361 126.935C9.57673 126.935 9.65057 126.973 9.70141 127.031V126.439C9.70141 126.362 9.75328 126.293 9.82747 126.272L10.1485 126.181C10.2006 126.167 10.2452 126.172 10.277 126.196C10.3088 126.22 10.3248 126.26 10.3248 126.315Z" fill="#514CD9"/>
</g>
<g filter="url(#filter3_d_99_37527)">
<path d="M11.1502 626.295V626.583C11.1502 626.683 11.0869 626.761 10.9809 626.79L10.353 626.966C10.2788 626.987 10.2266 627.066 10.2266 627.156V627.791C10.2266 628.046 10.0195 628.253 9.76487 628.253C9.5102 628.253 9.3031 628.046 9.3031 627.791C9.3031 627.536 9.5102 627.329 9.76487 627.329C9.9034 627.329 10.0265 627.392 10.1112 627.489V626.501C10.1112 626.374 10.1977 626.259 10.3213 626.223L10.8564 626.073C10.9432 626.048 11.0175 626.057 11.0705 626.097C11.1235 626.137 11.1502 626.204 11.1502 626.295Z" fill="#872EC4"/>
<path d="M6.32467 623.315V623.488C6.32467 623.548 6.28672 623.594 6.22313 623.612L5.84639 623.717C5.80186 623.73 5.77055 623.777 5.77055 623.831V624.212C5.77055 624.365 5.64629 624.489 5.49349 624.489C5.34069 624.489 5.21643 624.365 5.21643 624.212C5.21643 624.059 5.34069 623.935 5.49349 623.935C5.57661 623.935 5.65044 623.973 5.70128 624.031V623.439C5.70128 623.362 5.75316 623.293 5.82734 623.272L6.14839 623.181C6.20047 623.167 6.24509 623.172 6.27688 623.196C6.30867 623.22 6.32467 623.26 6.32467 623.315Z" fill="#872EC4"/>
</g>
<g filter="url(#filter4_d_99_37527)">
<path d="M241.425 197.98V198.52C241.425 198.707 241.307 198.852 241.109 198.907L239.935 199.235C239.796 199.276 239.698 199.422 239.698 199.591V200.779C239.698 201.255 239.311 201.642 238.834 201.642C238.358 201.642 237.971 201.255 237.971 200.779C237.971 200.302 238.358 199.915 238.834 199.915C239.094 199.915 239.324 200.032 239.482 200.213V198.367C239.482 198.128 239.644 197.914 239.875 197.846L240.876 197.565C241.038 197.519 241.177 197.535 241.277 197.61C241.376 197.685 241.425 197.81 241.425 197.98Z" fill="#872EC4"/>
<path d="M231.217 120.589V120.913C231.217 121.025 231.146 121.112 231.027 121.145L230.323 121.342C230.24 121.366 230.181 121.454 230.181 121.555V122.268C230.181 122.554 229.949 122.786 229.663 122.786C229.377 122.786 229.145 122.554 229.145 122.268C229.145 121.982 229.377 121.75 229.663 121.75C229.818 121.75 229.956 121.82 230.051 121.929V120.821C230.051 120.677 230.148 120.549 230.287 120.508L230.888 120.34C230.985 120.312 231.069 120.322 231.128 120.367C231.187 120.412 231.217 120.486 231.217 120.589Z" fill="#872EC4"/>
</g>
<g filter="url(#filter5_d_99_37527)">
<path d="M45.6289 280.593L45.8344 280.39C45.9056 280.32 46.0051 280.31 46.1005 280.365L46.6664 280.689C46.7339 280.726 46.8263 280.709 46.8906 280.645L47.3425 280.199C47.5238 280.02 47.8167 280.022 47.9955 280.203C48.1744 280.385 48.1725 280.678 47.9912 280.856C47.81 281.035 47.5171 281.033 47.3382 280.852C47.2409 280.753 47.199 280.622 47.2085 280.494L46.5058 281.187C46.4149 281.277 46.2727 281.296 46.1602 281.233L45.6774 280.958C45.599 280.913 45.5527 280.854 45.5441 280.788C45.5353 280.722 45.564 280.657 45.6289 280.593Z" fill="#514CD9"/>
<path d="M46.8974 286.121L47.0206 285.999C47.0634 285.957 47.123 285.951 47.1803 285.984L47.5198 286.178C47.5604 286.201 47.6158 286.19 47.6544 286.152L47.9255 285.884C48.0343 285.777 48.21 285.778 48.3173 285.887C48.4247 285.996 48.4235 286.171 48.3147 286.279C48.206 286.386 48.0303 286.385 47.9229 286.276C47.8645 286.217 47.8394 286.138 47.8451 286.061L47.4235 286.477C47.3689 286.531 47.2836 286.542 47.2161 286.505L46.9264 286.34C46.8794 286.313 46.8516 286.278 46.8464 286.238C46.8412 286.198 46.8584 286.159 46.8974 286.121Z" fill="#514CD9"/>
</g>
<g filter="url(#filter6_d_99_37527)">
<path d="M187.357 308.039L187.587 307.812C187.667 307.733 187.779 307.722 187.886 307.784L188.521 308.147C188.597 308.189 188.7 308.169 188.773 308.098L189.28 307.597C189.483 307.397 189.812 307.399 190.013 307.602C190.213 307.806 190.211 308.134 190.008 308.335C189.804 308.536 189.476 308.534 189.275 308.33C189.166 308.22 189.119 308.072 189.129 307.928L188.341 308.706C188.239 308.807 188.079 308.828 187.953 308.758L187.411 308.449C187.323 308.399 187.271 308.333 187.261 308.259C187.252 308.185 187.284 308.111 187.357 308.039Z" fill="#872EC4"/>
<path d="M184.06 300.371C184.288 300.146 184.658 300.148 184.884 300.377C185.11 300.606 185.107 300.976 184.879 301.201C184.65 301.427 184.28 301.425 184.054 301.196C183.828 300.967 183.831 300.597 184.06 300.371ZM183.755 301.354L183.571 301.536C183.533 301.574 183.532 301.635 183.57 301.674C183.608 301.712 183.669 301.712 183.708 301.675L183.892 301.493C183.93 301.455 183.931 301.393 183.893 301.355C183.855 301.317 183.794 301.317 183.755 301.354ZM185.231 299.898L185.046 300.08C185.008 300.118 185.008 300.179 185.045 300.218C185.083 300.256 185.145 300.256 185.183 300.218L185.367 300.036C185.405 299.999 185.406 299.937 185.368 299.899C185.331 299.861 185.269 299.86 185.231 299.898ZM185.038 301.363C185 301.4 184.999 301.462 185.037 301.5L185.219 301.684C185.257 301.723 185.318 301.723 185.356 301.685C185.395 301.648 185.395 301.586 185.357 301.548L185.175 301.364C185.138 301.325 185.076 301.325 185.038 301.363ZM183.582 299.887C183.544 299.925 183.543 299.987 183.581 300.025L183.763 300.209C183.801 300.247 183.862 300.248 183.9 300.21C183.939 300.172 183.939 300.111 183.901 300.073L183.719 299.888C183.682 299.85 183.62 299.85 183.582 299.887ZM184.464 301.596C184.41 301.596 184.366 301.639 184.366 301.693L184.364 301.952C184.364 302.005 184.407 302.049 184.461 302.049C184.515 302.05 184.558 302.007 184.559 301.953L184.56 301.694C184.561 301.667 184.55 301.643 184.532 301.625C184.515 301.607 184.491 301.596 184.464 301.596ZM184.477 299.523C184.424 299.523 184.38 299.566 184.38 299.62L184.378 299.879C184.378 299.933 184.421 299.976 184.475 299.977C184.528 299.977 184.572 299.934 184.572 299.88L184.574 299.621C184.574 299.594 184.564 299.57 184.546 299.552C184.529 299.535 184.504 299.523 184.477 299.523ZM185.636 300.697L185.377 300.695C185.323 300.695 185.279 300.738 185.279 300.792C185.278 300.845 185.322 300.889 185.375 300.89L185.634 300.891C185.688 300.892 185.732 300.848 185.732 300.795C185.732 300.768 185.722 300.743 185.704 300.726C185.687 300.708 185.663 300.697 185.636 300.697ZM183.563 300.683L183.304 300.681C183.25 300.681 183.206 300.724 183.206 300.778C183.206 300.832 183.249 300.876 183.303 300.876L183.562 300.878C183.615 300.878 183.659 300.835 183.66 300.781C183.66 300.754 183.649 300.73 183.632 300.712C183.614 300.694 183.59 300.683 183.563 300.683Z" fill="#872EC4"/>
</g>
<g filter="url(#filter7_d_99_37527)">
<path d="M340.864 418.257L340.871 418.588C340.873 418.703 340.802 418.794 340.681 418.83L339.964 419.047C339.88 419.073 339.822 419.165 339.824 419.268L339.84 419.998C339.846 420.29 339.613 420.533 339.32 420.539C339.028 420.545 338.785 420.313 338.779 420.02C338.773 419.728 339.005 419.485 339.298 419.479C339.457 419.475 339.6 419.544 339.7 419.653L339.675 418.52C339.672 418.373 339.769 418.239 339.91 418.195L340.521 418.009C340.62 417.979 340.705 417.987 340.767 418.031C340.829 418.076 340.861 418.152 340.864 418.257Z" fill="white"/>
<path d="M335.249 414.952L335.253 415.151C335.255 415.22 335.212 415.274 335.139 415.296L334.709 415.426C334.659 415.442 334.624 415.497 334.625 415.559L334.634 415.997C334.638 416.172 334.498 416.318 334.323 416.322C334.148 416.325 334.002 416.186 333.998 416.01C333.994 415.835 334.134 415.689 334.309 415.685C334.405 415.683 334.491 415.725 334.55 415.79L334.536 415.11C334.534 415.022 334.592 414.942 334.677 414.915L335.043 414.804C335.103 414.786 335.154 414.79 335.191 414.817C335.228 414.844 335.247 414.889 335.249 414.952Z" fill="white"/>
</g>
<g filter="url(#filter8_d_99_37527)">
<path d="M308.563 736.051L308.57 736.382C308.573 736.497 308.502 736.587 308.381 736.624L307.664 736.841C307.58 736.867 307.522 736.958 307.524 737.062L307.539 737.791C307.546 738.084 307.313 738.327 307.02 738.333C306.728 738.339 306.485 738.106 306.479 737.814C306.473 737.522 306.705 737.279 306.998 737.272C307.157 737.269 307.3 737.338 307.399 737.447L307.375 736.313C307.372 736.167 307.469 736.033 307.61 735.989L308.221 735.803C308.32 735.773 308.405 735.781 308.467 735.825C308.529 735.87 308.561 735.946 308.563 736.051Z" fill="#872EC4"/>
<path d="M302.949 732.746L302.953 732.945C302.954 733.014 302.912 733.068 302.839 733.09L302.409 733.22C302.359 733.236 302.324 733.291 302.325 733.353L302.334 733.79C302.338 733.966 302.198 734.112 302.023 734.115C301.847 734.119 301.702 733.979 301.698 733.804C301.694 733.628 301.834 733.483 302.009 733.479C302.105 733.477 302.191 733.518 302.25 733.584L302.236 732.904C302.234 732.816 302.292 732.735 302.377 732.709L302.743 732.597C302.803 732.579 302.854 732.584 302.891 732.611C302.928 732.638 302.947 732.683 302.949 732.746Z" fill="#872EC4"/>
<path d="M307.761 734.511C307.766 734.708 307.608 734.872 307.411 734.876C307.214 734.88 307.05 734.723 307.045 734.526C307.041 734.329 307.198 734.165 307.396 734.16C307.593 734.156 307.757 734.313 307.761 734.511ZM307.451 733.96L307.448 733.801C307.447 733.768 307.42 733.742 307.387 733.743C307.354 733.743 307.328 733.771 307.329 733.804L307.332 733.963C307.333 733.996 307.36 734.022 307.393 734.021C307.426 734.02 307.452 733.993 307.451 733.96ZM307.478 735.233L307.475 735.074C307.474 735.041 307.447 735.015 307.414 735.015C307.381 735.016 307.355 735.043 307.356 735.076L307.359 735.235C307.36 735.268 307.387 735.295 307.42 735.294C307.453 735.293 307.479 735.266 307.478 735.233ZM306.906 734.529C306.906 734.496 306.878 734.47 306.845 734.47L306.686 734.474C306.653 734.475 306.627 734.502 306.628 734.535C306.629 734.568 306.656 734.594 306.689 734.593L306.848 734.59C306.881 734.589 306.907 734.562 306.906 734.529ZM308.179 734.502C308.178 734.469 308.151 734.443 308.118 734.443L307.959 734.447C307.926 734.447 307.9 734.475 307.901 734.508C307.901 734.541 307.929 734.567 307.961 734.566L308.121 734.563C308.154 734.562 308.18 734.535 308.179 734.502ZM307.044 734.174C307.067 734.15 307.066 734.113 307.043 734.09L306.928 733.98C306.904 733.957 306.866 733.958 306.843 733.982C306.821 734.005 306.821 734.043 306.845 734.066L306.96 734.176C306.972 734.187 306.987 734.193 307.003 734.193C307.018 734.192 307.033 734.186 307.044 734.174ZM307.963 735.055C307.986 735.031 307.985 734.993 307.962 734.971L307.847 734.861C307.823 734.838 307.785 734.838 307.762 734.862C307.74 734.886 307.74 734.924 307.764 734.947L307.879 735.057C307.891 735.068 307.906 735.074 307.922 735.073C307.937 735.073 307.952 735.067 307.963 735.055ZM306.951 735.077L307.061 734.962C307.084 734.938 307.083 734.9 307.059 734.877C307.036 734.854 306.998 734.855 306.975 734.879L306.865 734.994C306.842 735.018 306.843 735.056 306.867 735.078C306.879 735.09 306.894 735.095 306.909 735.095C306.924 735.095 306.94 735.088 306.951 735.077ZM307.832 734.157L307.942 734.043C307.965 734.019 307.964 733.981 307.94 733.958C307.916 733.935 307.879 733.936 307.856 733.96L307.746 734.075C307.723 734.099 307.724 734.136 307.747 734.159C307.759 734.171 307.775 734.176 307.79 734.176C307.805 734.176 307.82 734.169 307.832 734.157Z" fill="#872EC4"/>
</g>
<g filter="url(#filter9_d_99_37527)">
<path d="M310.813 3.44193L310.906 7.80458C310.906 7.80577 310.906 7.8066 310.906 7.8078C310.916 8.46293 310.394 9.00599 309.738 9.01994C309.081 9.03394 308.534 8.51 308.52 7.85216C308.506 7.19433 309.03 6.64759 309.688 6.63359C309.994 6.62707 310.274 6.74089 310.49 6.9269L310.446 4.88215L306.493 6.08045L306.557 9.08728C306.571 9.74511 306.047 10.2918 305.389 10.3058C304.731 10.3198 304.184 9.7959 304.17 9.13807C304.156 8.48023 304.68 7.9335 305.338 7.9195C305.645 7.91297 305.924 8.0268 306.14 8.2128L306.063 4.58473C306.052 4.09274 306.296 3.75735 306.768 3.61401L309.787 2.69857C310.084 2.60829 310.339 2.63149 310.525 2.7664C310.71 2.90054 310.807 3.12773 310.813 3.44193Z" fill="#872EC4"/>
<path d="M307.826 1.42373L307.83 1.62259C307.832 1.69156 307.789 1.74578 307.717 1.76762L307.286 1.89774C307.236 1.9137 307.201 1.9684 307.202 2.03068L307.211 2.46818C307.215 2.64365 307.076 2.78939 306.9 2.79313C306.725 2.79686 306.579 2.6572 306.575 2.48172C306.571 2.30624 306.711 2.1605 306.886 2.15677C306.982 2.15474 307.068 2.19605 307.127 2.26163L307.113 1.58136C307.111 1.4933 307.169 1.41319 307.254 1.38656L307.62 1.27515C307.68 1.25701 307.731 1.26165 307.768 1.28855C307.805 1.31538 307.825 1.36089 307.826 1.42373Z" fill="#872EC4"/>
</g>
<g filter="url(#filter10_d_99_37527)">
<path d="M116.573 603.813L116.582 604.234C116.585 604.38 116.495 604.494 116.342 604.541L115.431 604.816C115.323 604.85 115.25 604.966 115.252 605.098L115.272 606.024C115.28 606.396 114.984 606.704 114.613 606.712C114.241 606.72 113.933 606.424 113.925 606.053C113.917 605.681 114.213 605.373 114.584 605.365C114.786 605.36 114.968 605.448 115.094 605.587L115.064 604.146C115.06 603.96 115.182 603.79 115.362 603.734L116.138 603.498C116.263 603.46 116.372 603.469 116.451 603.526C116.529 603.583 116.57 603.679 116.573 603.813Z" fill="white"/>
<path d="M233.373 514.549L233.431 517.243C233.431 517.244 233.43 517.245 233.43 517.245C233.437 517.65 233.114 517.986 232.709 517.994C232.303 518.003 231.965 517.679 231.957 517.273C231.948 516.866 232.272 516.529 232.678 516.52C232.867 516.516 233.04 516.586 233.173 516.701L233.146 515.438L230.704 516.178L230.744 518.036C230.753 518.442 230.429 518.78 230.023 518.788C229.616 518.797 229.278 518.473 229.27 518.067C229.261 517.661 229.585 517.323 229.991 517.314C230.181 517.31 230.353 517.381 230.487 517.496L230.439 515.255C230.432 514.951 230.583 514.743 230.874 514.655L232.739 514.089C232.923 514.034 233.08 514.048 233.195 514.131C233.309 514.214 233.369 514.355 233.373 514.549Z" fill="#872EC4"/>
<path d="M234.996 515.343L235 515.548C235.002 515.619 234.958 515.675 234.883 515.697L234.441 515.831C234.388 515.848 234.352 515.904 234.354 515.968L234.363 516.419C234.367 516.599 234.223 516.749 234.043 516.753C233.862 516.757 233.712 516.613 233.708 516.432C233.704 516.252 233.848 516.102 234.029 516.098C234.127 516.096 234.215 516.138 234.277 516.206L234.262 515.506C234.26 515.415 234.32 515.332 234.407 515.305L234.784 515.19C234.845 515.172 234.898 515.176 234.936 515.204C234.975 515.232 234.995 515.279 234.996 515.343Z" fill="#872EC4"/>
<path d="M231.528 513.302L231.531 513.425C231.532 513.468 231.505 513.501 231.46 513.515L231.195 513.595C231.163 513.605 231.142 513.639 231.143 513.677L231.149 513.947C231.151 514.056 231.065 514.146 230.956 514.148C230.848 514.15 230.758 514.064 230.755 513.956C230.753 513.847 230.839 513.757 230.948 513.755C231.007 513.754 231.06 513.779 231.097 513.82L231.088 513.399C231.087 513.345 231.122 513.296 231.175 513.279L231.401 513.21C231.438 513.199 231.469 513.202 231.492 513.219C231.515 513.235 231.527 513.263 231.528 513.302Z" fill="#872EC4"/>
<path d="M234.501 514.392C234.503 514.514 234.406 514.615 234.284 514.618C234.162 514.62 234.061 514.523 234.058 514.401C234.056 514.28 234.153 514.178 234.275 514.176C234.397 514.173 234.498 514.27 234.501 514.392ZM234.309 514.052L234.307 513.954C234.307 513.933 234.29 513.917 234.269 513.918C234.249 513.918 234.233 513.935 234.233 513.955L234.235 514.054C234.236 514.074 234.253 514.09 234.273 514.09C234.293 514.089 234.31 514.072 234.309 514.052ZM234.326 514.838L234.324 514.74C234.323 514.72 234.306 514.703 234.286 514.704C234.266 514.704 234.25 514.721 234.25 514.742L234.252 514.84C234.253 514.86 234.269 514.876 234.29 514.876C234.31 514.875 234.326 514.859 234.326 514.838ZM233.972 514.403C233.972 514.383 233.955 514.367 233.935 514.367L233.837 514.369C233.816 514.37 233.8 514.387 233.8 514.407C233.801 514.427 233.818 514.443 233.838 514.443L233.936 514.441C233.957 514.441 233.973 514.424 233.972 514.403ZM234.759 514.387C234.758 514.366 234.741 514.35 234.721 514.351L234.623 514.353C234.602 514.353 234.586 514.37 234.587 514.39C234.587 514.411 234.604 514.427 234.624 514.426L234.723 514.424C234.743 514.424 234.759 514.407 234.759 514.387ZM234.058 514.184C234.072 514.17 234.071 514.146 234.057 514.132L233.986 514.064C233.971 514.05 233.948 514.051 233.934 514.065C233.92 514.08 233.92 514.103 233.935 514.117L234.006 514.185C234.013 514.192 234.022 514.196 234.032 514.196C234.041 514.195 234.051 514.192 234.058 514.184ZM234.625 514.728C234.64 514.714 234.639 514.69 234.624 514.676L234.553 514.608C234.539 514.594 234.515 514.595 234.501 514.609C234.487 514.624 234.488 514.647 234.502 514.661L234.573 514.729C234.581 514.736 234.59 514.74 234.6 514.74C234.609 514.739 234.618 514.736 234.625 514.728ZM234 514.742L234.068 514.671C234.082 514.656 234.082 514.633 234.067 514.619C234.052 514.604 234.029 514.605 234.015 514.62L233.947 514.691C233.933 514.705 233.933 514.729 233.948 514.743C233.955 514.75 233.965 514.753 233.974 514.753C233.984 514.753 233.993 514.749 234 514.742ZM234.544 514.174L234.612 514.103C234.626 514.088 234.626 514.065 234.611 514.051C234.596 514.037 234.573 514.037 234.559 514.052L234.491 514.123C234.477 514.138 234.477 514.161 234.492 514.175C234.499 514.182 234.509 514.185 234.518 514.185C234.528 514.185 234.537 514.181 234.544 514.174Z" fill="#872EC4"/>
</g>
<g filter="url(#filter11_d_99_37527)">
<path d="M204.528 746.841L205.175 745.98C205.399 745.681 205.761 745.592 206.144 745.742L208.41 746.626C208.68 746.728 209.011 746.611 209.213 746.342L210.637 744.448C211.207 743.688 212.289 743.534 213.049 744.105C213.809 744.676 213.962 745.758 213.392 746.518C212.821 747.277 211.739 747.431 210.979 746.86C210.566 746.55 210.339 746.087 210.304 745.608L208.091 748.553C207.804 748.934 207.29 749.082 206.84 748.912L204.907 748.161C204.593 748.04 204.39 747.848 204.322 747.609C204.254 747.371 204.324 747.113 204.528 746.841Z" fill="#514CD9"/>
<path d="M62.9467 668.653L63.0533 668.544C63.0903 668.505 63.143 668.499 63.1941 668.527L63.4979 668.693C63.5341 668.712 63.5828 668.701 63.6162 668.667L63.8508 668.425C63.9449 668.328 64.1002 668.326 64.1971 668.42C64.2939 668.514 64.2962 668.67 64.2021 668.766C64.1081 668.863 63.9528 668.866 63.8559 668.772C63.8032 668.72 63.7795 668.651 63.7831 668.583L63.4183 668.959C63.3711 669.007 63.296 669.019 63.2356 668.987L62.9765 668.846C62.9345 668.824 62.9092 668.793 62.9039 668.758C62.8986 668.723 62.913 668.688 62.9467 668.653Z" fill="#872EC4"/>
</g>
<g filter="url(#filter12_d_99_37527)">
<path d="M165.015 450.123L165.682 449.278C165.914 448.985 166.278 448.905 166.656 449.064L168.9 450.003C169.168 450.111 169.502 450.003 169.711 449.738L171.179 447.879C171.769 447.134 172.854 447.006 173.6 447.596C174.345 448.185 174.472 449.27 173.883 450.016C173.294 450.761 172.209 450.889 171.463 450.299C171.058 449.979 170.842 449.511 170.818 449.031L168.534 451.921C168.239 452.296 167.721 452.431 167.276 452.25L165.361 451.452C165.051 451.323 164.852 451.127 164.79 450.887C164.728 450.647 164.804 450.39 165.015 450.123Z" fill="#514CD9"/>
<path d="M12.5317 387.662L12.6798 387.475C12.7312 387.41 12.812 387.392 12.896 387.427L13.3941 387.635C13.4534 387.66 13.5275 387.635 13.5739 387.577L13.8999 387.164C14.0306 386.999 14.2715 386.97 14.437 387.101C14.6025 387.232 14.6307 387.473 14.5 387.638C14.3692 387.804 14.1283 387.832 13.9628 387.701C13.8728 387.63 13.825 387.526 13.8197 387.42L13.3129 388.061C13.2472 388.144 13.1323 388.174 13.0335 388.134L12.6086 387.957C12.5397 387.928 12.4956 387.885 12.4818 387.832C12.468 387.778 12.4848 387.721 12.5317 387.662Z" fill="#872EC4"/>
</g>
<path d="M285.846 108.264C285.846 108.585 285.584 108.847 285.263 108.847C284.941 108.847 284.68 108.585 284.68 108.264C284.68 107.942 284.941 107.681 285.263 107.681C285.584 107.681 285.846 107.942 285.846 108.264ZM285.36 107.357V107.098C285.36 107.044 285.316 107 285.263 107C285.209 107 285.166 107.044 285.166 107.098V107.357C285.166 107.41 285.209 107.454 285.263 107.454C285.316 107.454 285.36 107.41 285.36 107.357ZM285.36 109.43V109.17C285.36 109.117 285.316 109.073 285.263 109.073C285.209 109.073 285.166 109.117 285.166 109.17V109.43C285.166 109.483 285.209 109.527 285.263 109.527C285.316 109.527 285.36 109.483 285.36 109.43ZM284.453 108.264C284.453 108.21 284.409 108.166 284.356 108.166H284.097C284.043 108.166 284 108.21 284 108.264C284 108.317 284.043 108.361 284.097 108.361H284.356C284.409 108.361 284.453 108.317 284.453 108.264ZM286.526 108.264C286.526 108.21 286.482 108.166 286.429 108.166H286.17C286.116 108.166 286.072 108.21 286.072 108.264C286.072 108.317 286.116 108.361 286.17 108.361H286.429C286.482 108.361 286.526 108.317 286.526 108.264ZM284.69 107.691C284.728 107.653 284.728 107.592 284.69 107.554L284.507 107.37C284.469 107.332 284.407 107.332 284.37 107.37C284.332 107.408 284.332 107.47 284.37 107.508L284.553 107.691C284.572 107.71 284.596 107.72 284.621 107.72C284.646 107.72 284.671 107.71 284.69 107.691ZM286.156 109.157C286.194 109.119 286.194 109.057 286.156 109.019L285.973 108.836C285.935 108.798 285.873 108.798 285.835 108.836C285.797 108.874 285.797 108.936 285.835 108.974L286.018 109.157C286.037 109.176 286.062 109.185 286.087 109.185C286.112 109.185 286.137 109.176 286.156 109.157ZM284.507 109.157L284.69 108.974C284.728 108.936 284.728 108.874 284.69 108.836C284.652 108.798 284.591 108.798 284.553 108.836L284.37 109.019C284.332 109.057 284.332 109.119 284.37 109.157C284.388 109.176 284.413 109.185 284.438 109.185C284.463 109.185 284.488 109.176 284.507 109.157ZM285.973 107.691L286.156 107.508C286.194 107.47 286.194 107.408 286.156 107.37C286.118 107.332 286.056 107.332 286.018 107.37L285.835 107.554C285.797 107.592 285.797 107.653 285.835 107.691C285.854 107.71 285.879 107.72 285.904 107.72C285.929 107.72 285.954 107.71 285.973 107.691Z" fill="#514CD9"/>
<defs>
<filter id="filter0_d_99_37527" x="103" y="73" width="14.6494" height="13.5412" filterUnits="userSpaceOnUse" color-interpolation-filters="sRGB">
<feFlood flood-opacity="0" result="BackgroundImageFix"/>
<feColorMatrix in="SourceAlpha" type="matrix" values="0 0 0 0 0 0 0 0 0 0 0 0 0 0 0 0 0 0 127 0" result="hardAlpha"/>
<feOffset dy="3"/>
<feGaussianBlur stdDeviation="2"/>
<feComposite in2="hardAlpha" operator="out"/>
<feColorMatrix type="matrix" values="0 0 0 0 0.0784314 0 0 0 0 0.309804 0 0 0 0 0.905882 0 0 0 0.71 0"/>
<feBlend mode="normal" in2="BackgroundImageFix" result="effect1_dropShadow_99_37527"/>
<feBlend mode="normal" in="SourceGraphic" in2="effect1_dropShadow_99_37527" result="shape"/>
</filter>
<filter id="filter1_d_99_37527" x="267.493" y="288.264" width="9.35071" height="9.35067" filterUnits="userSpaceOnUse" color-interpolation-filters="sRGB">
<feFlood flood-opacity="0" result="BackgroundImageFix"/>
<feColorMatrix in="SourceAlpha" type="matrix" values="0 0 0 0 0 0 0 0 0 0 0 0 0 0 0 0 0 0 127 0" result="hardAlpha"/>
<feOffset dy="3"/>
<feGaussianBlur stdDeviation="2"/>
<feComposite in2="hardAlpha" operator="out"/>
<feColorMatrix type="matrix" values="0 0 0 0 0.0784314 0 0 0 0 0.309804 0 0 0 0 0.905882 0 0 0 0.71 0"/>
<feBlend mode="normal" in2="BackgroundImageFix" result="effect1_dropShadow_99_37527"/>
<feBlend mode="normal" in="SourceGraphic" in2="effect1_dropShadow_99_37527" result="shape"/>
</filter>
<filter id="filter2_d_99_37527" x="4.90491" y="125" width="14.6494" height="13.5412" filterUnits="userSpaceOnUse" color-interpolation-filters="sRGB">
<feFlood flood-opacity="0" result="BackgroundImageFix"/>
<feColorMatrix in="SourceAlpha" type="matrix" values="0 0 0 0 0 0 0 0 0 0 0 0 0 0 0 0 0 0 127 0" result="hardAlpha"/>
<feOffset dy="3"/>
<feGaussianBlur stdDeviation="2"/>
<feComposite in2="hardAlpha" operator="out"/>
<feColorMatrix type="matrix" values="0 0 0 0 0.0784314 0 0 0 0 0.309804 0 0 0 0 0.905882 0 0 0 0.71 0"/>
<feBlend mode="normal" in2="BackgroundImageFix" result="effect1_dropShadow_99_37527"/>
<feBlend mode="normal" in="SourceGraphic" in2="effect1_dropShadow_99_37527" result="shape"/>
</filter>
<filter id="filter3_d_99_37527" x="0.904785" y="622" width="14.6494" height="13.5411" filterUnits="userSpaceOnUse" color-interpolation-filters="sRGB">
<feFlood flood-opacity="0" result="BackgroundImageFix"/>
<feColorMatrix in="SourceAlpha" type="matrix" values="0 0 0 0 0 0 0 0 0 0 0 0 0 0 0 0 0 0 127 0" result="hardAlpha"/>
<feOffset dy="3"/>
<feGaussianBlur stdDeviation="2"/>
<feComposite in2="hardAlpha" operator="out"/>
<feColorMatrix type="matrix" values="0 0 0 0 0.0784314 0 0 0 0 0.309804 0 0 0 0 0.905882 0 0 0 0.71 0"/>
<feBlend mode="normal" in2="BackgroundImageFix" result="effect1_dropShadow_99_37527"/>
<feBlend mode="normal" in="SourceGraphic" in2="effect1_dropShadow_99_37527" result="shape"/>
</filter>
<filter id="filter4_d_99_37527" x="224.562" y="119.001" width="21.6196" height="90.1815" filterUnits="userSpaceOnUse" color-interpolation-filters="sRGB">
<feFlood flood-opacity="0" result="BackgroundImageFix"/>
<feColorMatrix in="SourceAlpha" type="matrix" values="0 0 0 0 0 0 0 0 0 0 0 0 0 0 0 0 0 0 127 0" result="hardAlpha"/>
<feOffset dy="3"/>
<feGaussianBlur stdDeviation="2"/>
<feComposite in2="hardAlpha" operator="out"/>
<feColorMatrix type="matrix" values="0 0 0 0 0.0784314 0 0 0 0 0.309804 0 0 0 0 0.905882 0 0 0 0.71 0"/>
<feBlend mode="normal" in2="BackgroundImageFix" result="effect1_dropShadow_99_37527"/>
<feBlend mode="normal" in="SourceGraphic" in2="effect1_dropShadow_99_37527" result="shape"/>
</filter>
<filter id="filter5_d_99_37527" x="40.972" y="277.727" width="11.9181" height="16.625" filterUnits="userSpaceOnUse" color-interpolation-filters="sRGB">
<feFlood flood-opacity="0" result="BackgroundImageFix"/>
<feColorMatrix in="SourceAlpha" type="matrix" values="0 0 0 0 0 0 0 0 0 0 0 0 0 0 0 0 0 0 127 0" result="hardAlpha"/>
<feOffset dy="3"/>
<feGaussianBlur stdDeviation="2"/>
<feComposite in2="hardAlpha" operator="out"/>
<feColorMatrix type="matrix" values="0 0 0 0 0.0784314 0 0 0 0 0.309804 0 0 0 0 0.905882 0 0 0 0.71 0"/>
<feBlend mode="normal" in2="BackgroundImageFix" result="effect1_dropShadow_99_37527"/>
<feBlend mode="normal" in="SourceGraphic" in2="effect1_dropShadow_99_37527" result="shape"/>
</filter>
<filter id="filter6_d_99_37527" x="179.206" y="298.523" width="15.8105" height="18.8193" filterUnits="userSpaceOnUse" color-interpolation-filters="sRGB">
<feFlood flood-opacity="0" result="BackgroundImageFix"/>
<feColorMatrix in="SourceAlpha" type="matrix" values="0 0 0 0 0 0 0 0 0 0 0 0 0 0 0 0 0 0 127 0" result="hardAlpha"/>
<feOffset dy="3"/>
<feGaussianBlur stdDeviation="2"/>
<feComposite in2="hardAlpha" operator="out"/>
<feColorMatrix type="matrix" values="0 0 0 0 0.0784314 0 0 0 0 0.309804 0 0 0 0 0.905882 0 0 0 0.71 0"/>
<feBlend mode="normal" in2="BackgroundImageFix" result="effect1_dropShadow_99_37527"/>
<feBlend mode="normal" in="SourceGraphic" in2="effect1_dropShadow_99_37527" result="shape"/>
</filter>
<filter id="filter7_d_99_37527" x="329.61" y="413.585" width="15.772" height="14.3094" filterUnits="userSpaceOnUse" color-interpolation-filters="sRGB">
<feFlood flood-opacity="0" result="BackgroundImageFix"/>
<feColorMatrix in="SourceAlpha" type="matrix" values="0 0 0 0 0 0 0 0 0 0 0 0 0 0 0 0 0 0 127 0" result="hardAlpha"/>
<feOffset dy="3"/>
<feGaussianBlur stdDeviation="2"/>
<feComposite in2="hardAlpha" operator="out"/>
<feColorMatrix type="matrix" values="0 0 0 0 0.0784314 0 0 0 0 0.309804 0 0 0 0 0.905882 0 0 0 0.71 0"/>
<feBlend mode="normal" in2="BackgroundImageFix" result="effect1_dropShadow_99_37527"/>
<feBlend mode="normal" in="SourceGraphic" in2="effect1_dropShadow_99_37527" result="shape"/>
</filter>
<filter id="filter8_d_99_37527" x="297.31" y="731.379" width="15.7719" height="14.3095" filterUnits="userSpaceOnUse" color-interpolation-filters="sRGB">
<feFlood flood-opacity="0" result="BackgroundImageFix"/>
<feColorMatrix in="SourceAlpha" type="matrix" values="0 0 0 0 0 0 0 0 0 0 0 0 0 0 0 0 0 0 127 0" result="hardAlpha"/>
<feOffset dy="3"/>
<feGaussianBlur stdDeviation="2"/>
<feComposite in2="hardAlpha" operator="out"/>
<feColorMatrix type="matrix" values="0 0 0 0 0.0784314 0 0 0 0 0.309804 0 0 0 0 0.905882 0 0 0 0.71 0"/>
<feBlend mode="normal" in2="BackgroundImageFix" result="effect1_dropShadow_99_37527"/>
<feBlend mode="normal" in="SourceGraphic" in2="effect1_dropShadow_99_37527" result="shape"/>
</filter>
<filter id="filter9_d_99_37527" x="300.17" y="0.0567017" width="14.7363" height="17.2494" filterUnits="userSpaceOnUse" color-interpolation-filters="sRGB">
<feFlood flood-opacity="0" result="BackgroundImageFix"/>
<feColorMatrix in="SourceAlpha" type="matrix" values="0 0 0 0 0 0 0 0 0 0 0 0 0 0 0 0 0 0 127 0" result="hardAlpha"/>
<feOffset dy="3"/>
<feGaussianBlur stdDeviation="2"/>
<feComposite in2="hardAlpha" operator="out"/>
<feColorMatrix type="matrix" values="0 0 0 0 0.0784314 0 0 0 0 0.309804 0 0 0 0 0.905882 0 0 0 0.71 0"/>
<feBlend mode="normal" in2="BackgroundImageFix" result="effect1_dropShadow_99_37527"/>
<feBlend mode="normal" in="SourceGraphic" in2="effect1_dropShadow_99_37527" result="shape"/>
</filter>
<filter id="filter10_d_99_37527" x="109.925" y="512.075" width="129.392" height="101.637" filterUnits="userSpaceOnUse" color-interpolation-filters="sRGB">
<feFlood flood-opacity="0" result="BackgroundImageFix"/>
<feColorMatrix in="SourceAlpha" type="matrix" values="0 0 0 0 0 0 0 0 0 0 0 0 0 0 0 0 0 0 127 0" result="hardAlpha"/>
<feOffset dy="3"/>
<feGaussianBlur stdDeviation="2"/>
<feComposite in2="hardAlpha" operator="out"/>
<feColorMatrix type="matrix" values="0 0 0 0 0.0784314 0 0 0 0 0.309804 0 0 0 0 0.905882 0 0 0 0.71 0"/>
<feBlend mode="normal" in2="BackgroundImageFix" result="effect1_dropShadow_99_37527"/>
<feBlend mode="normal" in="SourceGraphic" in2="effect1_dropShadow_99_37527" result="shape"/>
</filter>
<filter id="filter11_d_99_37527" x="58.5994" y="666.649" width="159.137" height="89.3324" filterUnits="userSpaceOnUse" color-interpolation-filters="sRGB">
<feFlood flood-opacity="0" result="BackgroundImageFix"/>
<feColorMatrix in="SourceAlpha" type="matrix" values="0 0 0 0 0 0 0 0 0 0 0 0 0 0 0 0 0 0 127 0" result="hardAlpha"/>
<feOffset dy="3"/>
<feGaussianBlur stdDeviation="2"/>
<feComposite in2="hardAlpha" operator="out"/>
<feColorMatrix type="matrix" values="0 0 0 0 0.0784314 0 0 0 0 0.309804 0 0 0 0 0.905882 0 0 0 0.71 0"/>
<feBlend mode="normal" in2="BackgroundImageFix" result="effect1_dropShadow_99_37527"/>
<feBlend mode="normal" in="SourceGraphic" in2="effect1_dropShadow_99_37527" result="shape"/>
</filter>
<filter id="filter12_d_99_37527" x="8" y="384.995" width="170.254" height="74.3344" filterUnits="userSpaceOnUse" color-interpolation-filters="sRGB">
<feFlood flood-opacity="0" result="BackgroundImageFix"/>
<feColorMatrix in="SourceAlpha" type="matrix" values="0 0 0 0 0 0 0 0 0 0 0 0 0 0 0 0 0 0 127 0" result="hardAlpha"/>
<feOffset dy="3"/>
<feGaussianBlur stdDeviation="2"/>
<feComposite in2="hardAlpha" operator="out"/>
<feColorMatrix type="matrix" values="0 0 0 0 0.0784314 0 0 0 0 0.309804 0 0 0 0 0.905882 0 0 0 0.71 0"/>
<feBlend mode="normal" in2="BackgroundImageFix" result="effect1_dropShadow_99_37527"/>
<feBlend mode="normal" in="SourceGraphic" in2="effect1_dropShadow_99_37527" result="shape"/>
</filter>
</defs>
</svg>
