<svg width="29" height="28" viewBox="0 0 29 28" fill="none" xmlns="http://www.w3.org/2000/svg">
<g clip-path="url(#clip0_41_16715)">
<path d="M14.5002 7.98934C16.4062 7.98934 17.6918 8.78423 18.4249 9.44846L21.2895 6.74801C19.5301 5.16912 17.2407 4.20001 14.5002 4.20001C10.5305 4.20001 7.10202 6.39957 5.43291 9.6009L8.71474 12.0618C9.53802 9.6989 11.8161 7.98934 14.5002 7.98934V7.98934Z" fill="#EA4335"/>
<path d="M24.244 14.2178C24.244 13.412 24.1763 12.824 24.0297 12.2143H14.5V15.8512H20.0938C19.981 16.7549 19.372 18.116 18.0187 19.0307L21.2216 21.4263C23.1388 19.7167 24.244 17.2014 24.244 14.2178V14.2178Z" fill="#4285F4"/>
<path d="M8.72579 15.9382C8.51151 15.3284 8.38746 14.6751 8.38746 14C8.38746 13.3249 8.51151 12.6716 8.71451 12.0618L5.43268 9.60089C4.74474 10.9293 4.35001 12.4211 4.35001 14C4.35001 15.5789 4.74474 17.0707 5.43268 18.3991L8.72579 15.9382V15.9382Z" fill="#FBBC05"/>
<path d="M14.4999 23.8C17.2404 23.8 19.541 22.9289 21.2214 21.4262L18.0185 19.0307C17.1614 19.6078 16.0111 20.0107 14.4999 20.0107C11.8158 20.0107 9.53765 18.3011 8.72565 15.9382L5.44382 18.3991C7.11293 21.6005 10.5301 23.8 14.4999 23.8V23.8Z" fill="#34A853"/>
</g>
<defs>
<clipPath id="clip0_41_16715">
<rect width="29" height="28" fill="white"/>
</clipPath>
</defs>
</svg>
