<svg width="358" height="317" viewBox="0 0 358 317" fill="none" xmlns="http://www.w3.org/2000/svg">
<path d="M348.732 259.259C345.963 264.52 334.268 246.535 247.853 201.046C161.438 155.557 -2.56131 131.752 0.208328 126.491C2.97797 121.229 160.824 140.545 247.239 186.033C347.779 235.937 351.502 253.997 348.732 259.259Z" fill="white"/>
<path d="M35.9676 291.338C32.0776 291.338 30.1326 289.134 30.1326 284.725C30.1326 282.391 30.9106 278.631 32.4666 273.444C34.282 268.257 36.0973 263.071 37.9126 257.884C39.9873 252.697 41.5433 248.937 42.5806 246.603C44.6553 241.157 48.286 232.599 53.4726 220.929C58.6593 209 64.624 195.385 71.3666 180.084C78.1093 164.783 85.1113 149.094 92.3726 133.015C99.634 116.677 106.506 101.376 112.99 87.113C119.732 72.8497 125.567 61.05 130.495 51.714V48.991C130.495 43.8043 133.347 41.211 139.053 41.211C142.943 41.211 146.314 42.6373 149.167 45.49C149.685 46.0087 149.945 47.1757 149.945 48.991C149.945 50.8063 149.945 51.9733 149.945 52.492C149.945 55.0853 149.815 57.6787 149.556 60.272C149.296 62.606 149.037 64.94 148.778 67.274C147.481 82.3153 146.314 96.9677 145.277 111.231C144.499 125.235 144.11 138.461 144.11 150.909C144.11 177.102 146.184 198.497 150.334 215.094C154.742 231.432 161.744 239.601 171.34 239.601C176.008 239.601 181.324 236.748 187.289 231.043C193.513 225.078 199.866 217.298 206.35 207.703C213.092 197.848 219.835 187.345 226.578 176.194C233.32 164.783 239.544 153.502 245.25 142.351C251.214 131.2 256.271 121.215 260.421 112.398C264.829 103.321 268.071 96.449 270.146 91.781L281.038 67.274C284.928 58.4567 287.651 51.8437 289.207 47.435C290.763 42.767 292.578 39.5253 294.653 37.71C296.727 35.8947 300.488 34.987 305.934 34.987H307.49C309.305 34.987 310.991 35.2463 312.547 35.765C314.103 36.0243 314.621 37.0617 314.103 38.877C308.657 53.3997 303.859 69.608 299.71 87.502C295.82 105.137 292.708 123.29 290.374 141.962C288.299 160.634 287.262 178.917 287.262 196.811C287.262 210.296 287.91 223.263 289.207 235.711C290.763 248.159 293.097 259.31 296.209 269.165C296.468 269.943 296.598 270.98 296.598 272.277C296.598 274.87 295.56 276.686 293.486 277.723C291.67 278.76 289.725 279.279 287.651 279.279C285.317 279.279 282.983 277.593 280.649 274.222C278.315 270.851 276.499 265.923 275.203 259.44C274.165 254.513 273.258 246.603 272.48 235.711C271.702 224.819 271.313 211.204 271.313 194.866C271.313 161.671 274.684 128.866 281.427 96.449C271.053 117.455 260.55 137.553 249.918 156.744C239.285 175.935 228.782 192.921 218.409 207.703C208.295 222.485 198.44 234.155 188.845 242.713C179.509 251.271 170.562 255.55 162.004 255.55C153.705 255.55 146.962 250.234 141.776 239.601C136.848 228.968 133.218 214.964 130.884 197.589C128.55 180.214 127.383 161.542 127.383 141.573C127.383 129.644 127.772 117.585 128.55 105.396C129.328 93.2073 130.365 81.5373 131.662 70.386C129.068 76.61 124.919 86.2053 119.214 99.172C113.768 112.139 107.414 126.921 100.153 143.518C93.1506 160.115 85.8893 177.231 78.3686 194.866C71.1073 212.501 64.3646 229.228 58.1406 245.047C51.9166 260.607 46.9893 273.963 43.3586 285.114C42.3213 289.263 39.8576 291.338 35.9676 291.338Z" fill="white"/>
</svg>
